# xmcd
#
# Track frame offsets:
#	183
#	11108
#	27410
#	43318
#	54783
#	67380
#	82005
#	94528
#	107438
#	122525
#	137845
#	151523
#	164100
#	178633
#
# Disc length: 2546 seconds
#
# Revision: 1
# Processed by: cddbd v1.5.1PL2 Copyright (c) Steve Scherf et al.
# Submitted via: audiograbber 1.83.01
#
DISCID=b809f00e
DTITLE=Gitti and Erica - Jetzt kommen die lustigen Tage
DYEAR=1900
DGENRE=Volksmusik
TTITLE0=So küssen nur die Jäger
TTITLE1=Schau auf zu den Sternen
TTITLE2=Bei uns zuhaus'
TTITLE3=Ich hab' die ganze Nacht kein Auge zugemacht
TTITLE4=Traumland-Melodie
TTITLE5=Mal das Glück für mich
TTITLE6=Die Heimat darfst du nie vergessen
TTITLE7=Die Liebe, die Liebe
TTITLE8=Mein grünes Tal (Greensleeves)
TTITLE9=Drei weiße Rosen
TTITLE10=Und dann einen Tango
TTITLE11=Mein Liebster ist ein Gärtner
TTITLE12=Lieder, die von Herzen kommen
TTITLE13=Jetzt kommen die lustigen Tage
EXTD=
EXTT0=
EXTT1=
EXTT2=
EXTT3=
EXTT4=
EXTT5=
EXTT6=
EXTT7=
EXTT8=
EXTT9=
EXTT10=
EXTT11=
EXTT12=
EXTT13=
PLAYORDER=
